<?xml version="1.0" encoding="utf-8"?>
<!-- Generator: Adobe Illustrator 28.1.0, SVG Export Plug-In . SVG Version: 6.00 Build 0)  -->
<svg version="1.1" id="Layer_1" xmlns="http://www.w3.org/2000/svg" xmlns:xlink="http://www.w3.org/1999/xlink" x="0px" y="0px"
	 viewBox="0 0 441 75" style="enable-background:new 0 0 441 75;" xml:space="preserve">
<style type="text/css">
	.st0{fill:#1D50B5;}
	.st1{fill:#2970FF;}
	.st2{fill:#70CBFF;}
	.st3{fill:#15100E;}
	.st4{fill:#FFFFFF;}
</style>
<g transform="matrix(.45556918 0 0 .45556918 -16.696448 -32.865809)">
	<path class="st0" d="M212.3,215.9c0.4-2.3,1.8-7.4,0.6-8.5c-4.5-8.2-6.9-16.2-8.5-24.5c-1.8-9.7-8.5-20-10.6-30.1
		c-2.6,9.3,6.9,21.9,4.4,31.5c-2.3,8.8-2.1,17.2,1,25.8c2.2,6.4,4.1,9.6,5.1,16.3c0.9,5.9-1.7,6.5,3.8,8.8
		C210.6,227.4,211.9,223.9,212.3,215.9L212.3,215.9z"/>
	<path class="st1" d="M191.6,143.8c0.3,0,0.7,0,1,0c0.2,2.6,0.4,5.2,1.1,8.6c2.1,10.6,8.5,21.3,10.3,31c1.5,8.3,1,17.2,8,23.9
		c1.2,1.1,0.5,4.6,0.1,6.9c-1.2,7.1-2.7,14.1-4.1,21.2h13.5c-0.4-8.1-0.8-16.2,2.8-21.8c2.9-4.4,4.3-8.6,4.2-12.7
		c-0.2-8.5,4.4-12.2,9-20c2.1,7.9,4,15.1,5.9,22.2c1.5,5.7,2.9,11.4,4.7,17c1.3,4.2,1.9,10.7,4.7,12c5.7,2.6,12.8,2.5,19.3,3
		c-11.1-8.1-11.7-12-7.4-22.7c2-5.4,1.5-6.8,0.8-13.8c1.5-6.3,12.1-27.1,20.7-32.4c-9.4,16.7-9.4,27.8,1.4,43.7
		c0.9,0.2,2.7-3.8,3.7-3.6c1,0.2,1.7,6,2.8,6.2c1.8,0.3,4-4.9,5.8-4.6c1.4,0.3-0.3,7.9,1.2,8.2c1.9,0.3,6.8-6.7,8.7-6.4
		c1.4,0.2-4.7,12-3.2,12.2c2.1,0.4,9.9-9.6,11.5-10.9c3.9-2.9,6.4-6.2,9-10c8-12.6,17.5-25.6,25.8-36.8c8.2-11.2,7.4-18.9-2.6-28.8
		c-4-4-7.5-8.4-11.4-12.8c1.8-1.6,3-2.8,4.4-4.1c-0.6-0.6-0.9-1.3-1.4-1.6C314,103.5,286.5,90,258.8,77c-3.1-1.4-8-1.4-11.1,0.1
		c-45.3,20.3-95,25.6-141.7,41c-6.5,2.1-8.2,3.7-10.7,8.5c0.4,1.7,1.3,2.6,1.7,3.4c0.2,7.8,0.3,15.6,0.4,24.3c0,0.8,0,0.6,0,0.6
		s27.8,0.9,40.9,1c0,0,0.2,0,0.2-0.3c0.7-1.6,1.4-2.5,2.4-4c2.2-2.8,4.1-5.9,6.3-8.8c0.4,0.2,0.8,0.4,1.2,0.7
		c-0.4,2.7-0.8,5.2-1.3,9c10.6,8.2,25.6,16.5,38.6,17.2"/>
	<g>
		<path class="st0" d="M185.7,169.5c-13-1.2-28.2-9.3-38.7-16.9c-2.6,7.1-4.7,12.8-6.8,19.2c-0.5,1.6,0,5.2,0.9,5.5
			c10.9,4.1,25.9,8.9,37.7,12.9C181.3,183,183.6,176.4,185.7,169.5z"/>
		<path class="st0" d="M98.3,202.6c0-4.9-0.8-9.5-0.9-14c-0.2-7.1-0.1-16.2-0.3-23.8c-5.2,12.3-12,26.8-14.5,40.1
			c-1.7,8.6,2.7,18.4,4.6,27.7c0.2,0.8,2.3,1.8,3.1,1.6c0.9-0.3,2-2,2-3c-0.2-5-0.3-10-1.4-14.8C89.5,209.7,91.5,205.4,98.3,202.6z
			 M138.4,155.9c-12.9-0.6-27.2-1.4-41.1-1.1c-0.2,2.8-0.3,4.6-0.5,6.2c0,1.4,0,2.9,0.3,5.4c0.2,8.1,0.1,15.2,0.3,22.3
			c0.1,4.5,0.5,9.5,0.9,14c12.6-5.6,23.3-13.6,29.1-26.8C130.2,169.2,134.7,162.7,138.4,155.9z"/>
		<path class="st0" d="M135,200.9c2.9-2.4,5.8-4.9,9.5-7.9c-4-2.5-7.2-4.5-10.5-6.5c-5.9,6.3-11.6,12.3-17.2,18.4
			c-0.7,0.8-0.7,2.5-0.5,3.7c1.2,6.4,2.3,12.9,4,19.2c0.6,2.1,2.9,3.7,4.5,5.6c0.8-2.1,2.2-4.2,2.2-6.4c0.1-3.4-0.3-6.8-1.1-10.1
			c-1.4-5.8-0.2-10.3,5.9-13.6C133.4,202.6,133.9,201.5,135,200.9z"/>
	</g>
	<path class="st1" d="M97.1,130c-0.3-1.3,0.7-5.1,0.1-6.4c-6.8,7.7-7.1,9.7-13.5,17.3c-2.5,3-5.4,6.1-8.3,9.7c0,2.5,0.5,4.4,1,6.2
		C85.4,145.5,87.9,141.9,97.1,130z"/>
	<path class="st1" d="M73.1,147.1c-6.9-8.6-17.4-8.3-26.4,1.4c0.4,1.9,0.9,3.4,1.2,3.3c7.5-0.6,15.1-1.4,22.6-2.4
		C71.4,149.3,72.3,148,73.1,147.1z"/>
	<path class="st0" d="M73.2,147c-1.1,0.7-1.8,2.2-2.7,2.4c-7.5,1-15,1.8-22.6,2.4c-0.3,0-0.7-2-1.2-3.4c-4.4,3.9-5.9,8.9-4.5,15.1
		c7.3-3.8,14-7.4,20.8-10.9c4.3-2.2,8.3-3.1,9.7,3.4c0.1,0.7,2.2,0.9,3.8,1c-0.1-2.2-0.6-4-1.1-6.3C74.8,149.2,74.2,148.2,73.2,147z
		"/>
	<path class="st2" d="M271.5,122.7c-1.3-4.2,5.8-12.2,14.9-19.4c-11.8-6.3-18.8-8.7-31.6-14.7c-17.5,7.2-22.1,15.6-30.1,30.7
		C243.1,113.1,257.4,115.7,271.5,122.7z"/>
	<path class="st0" d="M250.6,229.7c-1.7-4.3-8.7-32.7-13.1-48.9c10.3-7.1,38.1-15.5,64.1-42.9c-3.9,16.1-16.4,43.7-10.6,64.5
		c1,3.7-0.2,4.7-3.1,8c-5.3-7.9-16.1-21.9-2.3-43.5c0,0-7.6,7.2-14.7,14.6c-5.3,5.4-12.8,5.1-15.3,10.4c-5.9,12.3-0.9,41.1-0.9,41.1
		C252.6,232.3,251.1,231.2,250.6,229.7L250.6,229.7z"/>
	<path class="st3" d="M296.8,126.8c-1.2,11.9,8.2,25.8,18.5,27.5c4.4,0.7,14.4,0.9,15.9-4.4c1.4-5.2-2.7-11.6-11.1-11.7
		c-15.1-3.2-10.8-29.5-10.8-29.5S302.7,108,296.8,126.8z"/>
</g>
<g transform="matrix(1.24157014 0 0 1.24157014 649.087505 -43.38437)">
	<g>
		<path class="st4" d="M-365.8,67.4h3.7V93h-3.7V67.4z M-366.5,59.7c0-0.8,0.2-1.5,0.7-2c0.5-0.5,1.1-0.8,1.8-0.8
			c0.7,0,1.4,0.3,1.8,0.8c0.5,0.5,0.8,1.1,0.8,2c0,0.8-0.3,1.5-0.8,1.9c-0.5,0.4-1.1,0.7-1.8,0.7c-0.7,0-1.4-0.2-1.8-0.7
			C-366.3,61.1-366.5,60.5-366.5,59.7z"/>
		<path class="st4" d="M-355.8,88.8c0.7,0.4,1.5,0.8,2.4,1.1c1,0.3,1.9,0.4,2.9,0.4c1.1,0,2.1-0.3,2.9-0.8c0.8-0.6,1.2-1.5,1.2-2.8
			c0-1.1-0.2-1.9-0.7-2.6c-0.5-0.7-1.1-1.3-1.8-1.8c-0.7-0.5-1.5-1-2.3-1.5c-0.9-0.5-1.7-1-2.4-1.7c-0.7-0.6-1.3-1.4-1.8-2.3
			c-0.5-0.9-0.7-2-0.7-3.4c0-2.2,0.6-3.8,1.7-4.9c1.2-1.1,2.9-1.7,5-1.7c1.4,0,2.6,0.1,3.6,0.4c1,0.2,1.9,0.6,2.7,1l-1,3.1
			c-0.6-0.3-1.4-0.6-2.2-0.8c-0.9-0.2-1.7-0.4-2.6-0.4c-1.2,0-2.1,0.3-2.7,0.8c-0.5,0.5-0.8,1.3-0.8,2.4c0,0.9,0.2,1.6,0.7,2.2
			c0.5,0.6,1.1,1.1,1.8,1.6c0.7,0.5,1.5,1,2.4,1.5c0.9,0.5,1.6,1.1,2.3,1.8c0.7,0.7,1.4,1.5,1.8,2.5c0.5,1,0.7,2.2,0.7,3.6
			c0,1-0.2,1.9-0.5,2.7c-0.3,0.9-0.8,1.6-1.4,2.2c-0.6,0.6-1.4,1.1-2.3,1.5c-0.9,0.4-2,0.6-3.3,0.6c-1.5,0-2.8-0.2-3.9-0.5
			c-1.1-0.3-2-0.6-2.8-1.1L-355.8,88.8z"/>
		<path class="st4" d="M-339.2,80.2c0-4.6,0.8-8,2.3-10.1c1.6-2.2,3.9-3.3,6.8-3.3c3.1,0,5.4,1.1,6.9,3.3c1.5,2.2,2.2,5.6,2.2,10.1
			c0,4.6-0.8,8-2.4,10.2c-1.6,2.1-3.8,3.2-6.7,3.2c-3.1,0-5.4-1.1-6.9-3.3C-338.5,88.1-339.2,84.7-339.2,80.2L-339.2,80.2z
			 M-335.4,80.2c0,1.5,0.1,2.9,0.3,4.1c0.2,1.2,0.5,2.3,0.9,3.2c0.4,0.9,1,1.6,1.7,2.1c0.7,0.5,1.5,0.7,2.5,0.7c1.8,0,3.1-0.8,4-2.3
			c0.9-1.6,1.3-4.2,1.3-7.7c0-1.5-0.1-2.8-0.3-4c-0.2-1.3-0.5-2.3-0.9-3.2c-0.4-0.9-1-1.6-1.6-2c-0.7-0.5-1.5-0.8-2.5-0.8
			c-1.7,0-3.1,0.8-4,2.4C-335,74.1-335.4,76.7-335.4,80.2z"/>
		<path class="st4" d="M-303,93V77.4c0-2.6-0.3-4.4-0.9-5.5c-0.6-1.2-1.6-1.7-3.2-1.7c-1.4,0-2.5,0.4-3.4,1.2
			c-0.9,0.8-1.5,1.8-1.9,3V93h-3.7V67.4h2.7l0.7,2.7h0.2c0.6-0.9,1.5-1.7,2.6-2.3c1.1-0.6,2.5-1,4-1c1.1,0,2,0.2,2.9,0.5
			c0.9,0.3,1.5,0.8,2.1,1.6c0.6,0.7,1,1.7,1.3,2.9c0.3,1.2,0.5,2.8,0.5,4.6V93L-303,93z"/>
	</g>
	<path class="st4" d="M-373.2,61.3c0,1-0.1,2-0.4,3c-0.2,1-0.6,2-1.1,2.9c-0.5,0.9-1.1,1.7-1.9,2.4c-0.7,0.7-1.7,1.2-2.7,1.6v0.2
		c0.9,0.2,1.8,0.5,2.7,1c0.9,0.4,1.6,1.1,2.3,1.9c0.7,0.8,1.2,1.8,1.6,2.9c0.4,1.1,0.6,2.5,0.6,4.1c0,2.1-0.3,3.9-1,5.5
		c-0.7,1.5-1.6,2.8-2.7,3.7c-1.1,1-2.5,1.7-4,2.2c-1.5,0.5-3.1,0.7-4.7,0.7c-0.5,0-1.2,0-1.9,0c-0.7,0-1.5,0-2.3-0.1
		c-0.8,0-1.6-0.1-2.5-0.2c-0.8-0.1-1.5-0.2-2.2-0.4V52.4c1.2-0.2,2.5-0.4,4.1-0.6c1.6-0.2,3.3-0.2,5.1-0.2c1.3,0,2.6,0.1,4,0.4
		c1.3,0.2,2.5,0.7,3.6,1.4c1.1,0.7,1.9,1.7,2.5,3C-373.5,57.6-373.2,59.2-373.2,61.3L-373.2,61.3z M-384.3,89.3c1.1,0,2-0.2,2.9-0.5
		c0.9-0.4,1.7-0.9,2.3-1.5c0.7-0.7,1.2-1.5,1.6-2.4c0.4-1,0.6-2.1,0.6-3.4c0-1.6-0.3-2.9-0.8-3.9c-0.5-1-1.1-1.8-1.9-2.3
		s-1.7-0.9-2.7-1.1c-1-0.2-2-0.3-3-0.3h-3.9v14.9c0.2,0.1,0.5,0.1,0.9,0.2c0.4,0,0.8,0.1,1.2,0.1c0.5,0,0.9,0.1,1.4,0.1
		C-385.1,89.3-384.7,89.3-384.3,89.3L-384.3,89.3z M-386.7,70.2c0.5,0,1.2,0,1.9-0.1c0.7,0,1.3-0.1,1.8-0.2c1.4-0.6,2.7-1.5,3.7-2.8
		c1.1-1.3,1.6-2.9,1.6-4.8c0-1.3-0.2-2.4-0.5-3.2c-0.4-0.9-0.8-1.6-1.5-2.1c-0.6-0.5-1.3-0.9-2.1-1.1c-0.8-0.2-1.7-0.4-2.6-0.4
		c-1,0-1.9,0-2.7,0.1c-0.8,0-1.4,0.1-1.9,0.2v14.3L-386.7,70.2z"/>
	<g>
		<path class="st4" d="M-247.9,69c1-0.6,2.2-1.1,3.6-1.4c1.4-0.3,2.9-0.5,4.5-0.5c1.4,0,2.6,0.2,3.4,0.7c0.9,0.4,1.6,1,2,1.7
			c0.5,0.7,0.8,1.6,1,2.5c0.2,0.9,0.3,1.9,0.3,2.9c0,2-0.1,4-0.2,6c-0.1,1.9-0.1,3.8-0.1,5.5c0,1.3,0,2.5,0.1,3.6
			c0.1,1.1,0.3,2.1,0.5,3.1h-2.8l-0.9-3h-0.2c-0.5,0.9-1.3,1.7-2.2,2.3c-1,0.6-2.3,1-4,1c-1.8,0-3.4-0.6-4.5-1.9
			c-1.2-1.3-1.7-3.1-1.7-5.3c0-1.5,0.2-2.7,0.7-3.7c0.5-1,1.2-1.8,2.1-2.4c0.9-0.6,2-1,3.2-1.3c1.3-0.3,2.7-0.4,4.2-0.4
			c0.3,0,0.7,0,1,0c0.3,0,0.7,0,1.1,0.1c0.1-1.1,0.2-2,0.2-2.8c0-1.9-0.3-3.3-0.9-4.1c-0.6-0.8-1.6-1.2-3.2-1.2c-1,0-2,0.2-3.1,0.5
			c-1.1,0.3-2.1,0.6-2.8,1.1L-247.9,69z M-236.8,81.3c-0.3,0-0.7-0.1-1-0.1c-0.3,0-0.7-0.1-1-0.1c-0.8,0-1.6,0.1-2.4,0.2
			s-1.5,0.4-2.1,0.7c-0.6,0.3-1.1,0.8-1.5,1.4c-0.3,0.6-0.5,1.3-0.5,2.2c0,1.4,0.3,2.4,1,3.2c0.7,0.7,1.6,1.1,2.6,1.1
			c1.4,0,2.5-0.3,3.3-1s1.3-1.4,1.6-2.2L-236.8,81.3z"/>
		<path class="st4" d="M-223.3,86.9c0,1.2,0.2,2,0.5,2.6c0.3,0.5,0.8,0.8,1.4,0.8c0.7,0,1.6-0.2,2.5-0.6l0.4,3
			c-0.4,0.3-1.1,0.5-1.9,0.7c-0.8,0.2-1.5,0.3-2.1,0.3c-1.3,0-2.4-0.4-3.2-1.2c-0.8-0.8-1.2-2.2-1.2-4.2V57.2h3.7L-223.3,86.9z"/>
		<path class="st4" d="M-211.4,86.9c0,1.2,0.2,2,0.5,2.6c0.3,0.5,0.8,0.8,1.4,0.8c0.7,0,1.6-0.2,2.5-0.6l0.4,3
			c-0.4,0.3-1.1,0.5-1.9,0.7c-0.8,0.2-1.5,0.3-2.1,0.3c-1.3,0-2.4-0.4-3.2-1.2c-0.8-0.8-1.2-2.2-1.2-4.2V57.2h3.7L-211.4,86.9z"/>
		<path class="st4" d="M-188.1,91.2c-0.8,0.7-1.9,1.3-3.1,1.7c-1.3,0.4-2.6,0.6-4,0.6c-1.6,0-3-0.3-4.2-0.9
			c-1.2-0.6-2.1-1.6-2.9-2.7c-0.7-1.2-1.3-2.6-1.7-4.2c-0.3-1.6-0.5-3.5-0.5-5.5c0-4.4,0.8-7.7,2.4-10c1.6-2.3,3.9-3.4,6.8-3.4
			c1,0,1.9,0.1,2.8,0.4c1,0.2,1.8,0.7,2.6,1.4s1.3,1.7,1.8,3c0.5,1.3,0.7,3,0.7,5.1c0,0.6,0,1.2-0.1,1.9c0,0.6-0.1,1.3-0.2,2h-13
			c0,1.5,0.1,2.8,0.4,4s0.6,2.2,1.1,3.1c0.5,0.8,1.2,1.5,1.9,1.9c0.8,0.4,1.8,0.7,3,0.7c0.9,0,1.8-0.2,2.7-0.5
			c0.9-0.3,1.6-0.7,2.1-1.2L-188.1,91.2z M-191,77.5c0.1-2.6-0.3-4.4-1.1-5.6c-0.8-1.2-1.9-1.8-3.2-1.8c-1.6,0-2.8,0.6-3.7,1.8
			c-0.9,1.2-1.5,3.1-1.6,5.6H-191z"/>
		<path class="st4" d="M-184.9,67.4h3.1v-5.1l3.7-1.2v6.2h5.5v3.3h-5.5V86c0,1.5,0.2,2.6,0.5,3.3c0.4,0.6,1,1,1.8,1
			c0.7,0,1.3-0.1,1.7-0.2c0.5-0.2,1.1-0.4,1.6-0.6l0.7,2.9c-0.7,0.4-1.6,0.7-2.5,0.9c-0.9,0.2-1.8,0.4-2.8,0.4
			c-1.7,0-2.9-0.5-3.7-1.6c-0.7-1.1-1.1-2.9-1.1-5.4V70.7h-3.1L-184.9,67.4z"/>
	</g>
	<path class="st4" d="M-278,79.1l0.7,6.8h0.1l0.7-6.9L-270,52h2.5l6.5,27l0.7,6.9h0.1l0.8-6.9l5.2-26.9h4.4l-9.1,41.5h-2.7
		l-6.5-26.9l-0.8-6.2h-0.2l-0.8,6.3l-6.5,26.9h-2.7l-9.3-41.5h4.7L-278,79.1z"/>
</g>
</svg>
